<svg xmlns="http://www.w3.org/2000/svg" id="Layer_1" data-name="Layer 1" viewBox="0 0 20 20" width="15" height="15">
  <path d="m19.599,11.439c.586.585.586,1.536,0,2.121-.293.293-.677.439-1.061.439s-.768-.146-1.061-.439l-1.439-1.439-1.439,1.439c-.293.293-.677.439-1.061.439s-.768-.146-1.061-.439c-.586-.585-.586-1.536,0-2.121l1.439-1.439-1.439-1.439c-.586-.585-.586-1.536,0-2.121.586-.586,1.535-.586,2.121,0l1.439,1.439,1.439-1.439c.586-.586,1.535-.586,2.121,0,.586.585.586,1.536,0,2.121l-1.439,1.439,1.439,1.439ZM11.455,.343c.345.285.545.709.545,1.157v19c0,.448-.2.872-.545,1.157-.271.224-.609.343-.955.343-.095,0-.19-.009-.284-.027-3.213-.62-5.267-2.709-6.596-4.473h-.62c-2.757,0-5-2.243-5-5v-4.5c0-2.757,2.243-5,5-5h.251C5.166,2.19,7.451,.561,10.216,.027c.436-.088.894.031,1.239.316Zm-2.455,3.244c-1.363.701-2.553,1.911-3.658,3.701-.273.442-.756.712-1.276.712h-1.065c-1.103,0-2,.897-2,2v4.5c0,1.103.897,2,2,2h1.385c.49,0,.949.239,1.229.641,1.097,1.569,2.185,2.626,3.386,3.261V3.587Z"/>
</svg>
